#!OML:ASF H:\ManfredETheater\Project 1\Capture day 1\Session 1\subject.ASF
:FULLY-SPECIFIED
:DEGREES
177
root -5.86973 8.53009 -11.9157 -8.62878 69.2872 -10.274
lowerback 62.1727 -5.07912 1.59326
upperback 12.8712 -1.5494 4.39893
thorax -6.91424 -0.113379 4.79454
lowerneck 6.11101 -14.7157 -12.9077
upperneck -18.1126 -18.7125 23.7698
head -2.57307 -10.3629 9.71349
rclavicle 5.71009e-014 3.83406e-014
rhumerus -17.0287 -5.61311 -47.232
rradius 88.4161
rwrist -9.39309
rhand -27.2823 -11.8574
rfingers 7.12502
rthumb -0.692716 -41.836
lclavicle 5.71009e-014 3.83406e-014
lhumerus -11.9017 4.48852 44.6165
lradius 91.1612
lwrist 3.59264
lhand -20.8572 -0.798254
lfingers 7.12502
lthumb 5.51218 29.1101
rfemur -85.2637 -47.7378 3.05457
rtibia 125.61
rfoot -26.8493 1.68331
rtoes -40.049
lfemur -89.9499 40.9558 2.46689
ltibia 137.332
lfoot -20.3298 -58.3529
ltoes 20.5493
178
root -5.87949 8.48719 -11.8201 -7.79208 69.4184 -9.2847
lowerback 62.2594 -5.0826 1.52328
upperback 12.8632 -1.57508 4.40546
thorax -6.92234 -0.120884 4.84422
lowerneck 6.27778 -14.7642 -12.8145
upperneck -18.3398 -18.7695 23.6907
head -2.67692 -10.4029 9.70733
rclavicle -1.01132e-014 8.45953e-014
rhumerus -16.27 -5.57271 -46.6444
rradius 88.5369
rwrist -9.4499
rhand -27.3416 -11.8012
rfingers 7.12502
rthumb -0.750037 -41.7796
lclavicle -1.01132e-014 8.45953e-014
lhumerus -11.2782 4.48794 44.2461
lradius 90.9993
lwrist 3.21462
lhand -20.9613 -1.16491
lfingers 7.12502
lthumb 5.41171 28.746
rfemur -85.8673 -48.4321 3.30351
rtibia 126.486
rfoot -27.3544 1.50281
rtoes -39.8728
lfemur -89.6366 40.769 3.30154
ltibia 137.273
lfoot -19.1966 -59.0934
ltoes 20.0937
179
root -5.88936 8.45084 -11.7257 -6.86551 69.5323 -8.22146
lowerback 62.354 -5.09172 1.4527
upperback 12.847 -1.61018 4.3982
thorax -6.93912 -0.131749 4.88302
lowerneck 6.44716 -14.8052 -12.7214
upperneck -18.5768 -18.8158 23.6101
head -2.78645 -10.4375 9.70328
rclavicle -6.25426e-014 4.29872e-015
rhumerus -15.5772 -5.62735 -46.149
rradius 88.7476
rwrist -9.54717
rhand -27.3782 -11.8369
rfingers 7.12502
rthumb -0.785368 -41.8152
lclavicle -6.25426e-014 4.29872e-015
lhumerus -10.689 4.565 43.9234
lradius 90.8762
lwrist 3.08004
lhand -21.1678 -1.43335
lfingers 7.12502
lthumb 5.21231 28.4825
rfemur -86.4934 -49.1225 3.59677
rtibia 127.317
rfoot -27.8566 1.32773
rtoes -39.6683
lfemur -89.2915 40.5226 4.08062
ltibia 137.17
lfoot -18.1123 -59.738
ltoes 19.5575
180
root -5.89911 8.42029 -11.6325 -5.86111 69.6265 -7.12702
lowerback 62.4139 -5.1097 1.39453
upperback 12.8291 -1.65404 4.3806
thorax -6.95673 -0.146196 4.90809
lowerneck 6.61401 -14.8375 -12.629
upperneck -18.8182 -18.8505 23.5221
head -2.89996 -10.4652 9.69879
rclavicle 6.70898e-015 -3.62782e-014
rhumerus -14.9505 -5.76059 -45.7362
rradius 89.0406
rwrist -9.65321
rhand -27.3881 -11.9353
rfingers 7.12502
rthumb -0.794938 -41.9136
lclavicle 6.70898e-015 -3.62782e-014
lhumerus -10.1547 4.72174 43.6512
lradius 90.8008
lwrist 3.2209
lhand -21.4223 -1.61732
lfingers 7.12502
lthumb 4.96655 28.3045
rfemur -87.194 -49.7974 3.9845
rtibia 128.099
rfoot -28.3359 1.14847
rtoes -39.4325
lfemur -88.957 40.248 4.80459
ltibia 137.032
lfoot -16.8845 -60.3284
ltoes 19.1802
181
root -5.90875 8.39613 -11.5403 -4.81237 69.7108 -6.02709
lowerback 62.4551 -5.14357 1.35745
upperback 12.8074 -1.70596 4.35953
thorax -6.97777 -0.163946 4.92344
lowerneck 6.76897 -14.8664 -12.5432
upperneck -19.0604 -18.8817 23.4248
head -3.01305 -10.4891 9.69197
rclavicle -7.55382e-015 3.8266e-015
rhumerus -14.3888 -5.95017 -45.3715
rradius 89.4111
rwrist -9.77553
rhand -27.3779 -12.0552
rfingers 7.12502
rthumb -0.785094 -42.0335
lclavicle -7.55382e-015 3.8266e-015
lhumerus -9.6888 4.95777 43.4439
lradius 90.7757
lwrist 3.5989
lhand -21.7019 -1.70221
lfingers 7.12502
lthumb 4.69662 28.2257
rfemur -87.9442 -50.4646 4.46204
rtibia 128.832
rfoot -28.7988 0.964523
rtoes -39.1571
lfemur -88.6413 39.9229 5.43674
ltibia 136.854
lfoot -15.9451 -60.754
ltoes 18.5623
182
root -5.91832 8.37874 -11.4488 -3.76196 69.7768 -4.97221
lowerback 62.4769 -5.19092 1.34673
upperback 12.7821 -1.76 4.33912
thorax -7.00254 -0.182853 4.92896
lowerneck 6.90386 -14.8947 -12.4703
upperneck -19.295 -18.9145 23.3191
head -3.12017 -10.5108 9.68187
rclavicle -2.77305e-014 6.44559e-014
rhumerus -13.8828 -6.17042 -45.0559
rradius 89.848
rwrist -9.8822
rhand -27.4034 -12.2032
rfingers 7.12502
rthumb -0.809711 -42.1814
lclavicle -2.77305e-014 6.44559e-014
lhumerus -9.30715 5.27223 43.3014
lradius 90.8028
lwrist 4.20257
lhand -21.9641 -1.68923
lfingers 7.12502
lthumb 4.4434 28.2442
rfemur -88.7492 -51.0962 5.05859
rtibia 129.514
rfoot -29.2429 0.763006
rtoes -38.83
lfemur -88.3325 39.5812 6.01669
ltibia 136.631
lfoot -15.1861 -61.076
ltoes 17.8356
183
root -5.92838 8.36998 -11.3577 -2.7896 69.8141 -4.02263
lowerback 62.5268 -5.24667 1.36399
upperback 12.745 -1.80498 4.32462
thorax -7.04143 -0.198127 4.92606
lowerneck 7.02476 -14.9161 -12.4084
upperneck -19.5367 -18.9395 23.2004
head -3.2291 -10.5259 9.66951
rclavicle 7.7526e-015 1.20265e-014
rhumerus -13.4186 -6.3929 -44.7736
rradius 90.3369
rwrist -9.97765
rhand -27.4438 -12.3296
rfingers 7.12502
rthumb -0.848695 -42.3077
lclavicle 7.7526e-015 1.20265e-014
lhumerus -9.02148 5.66129 43.2271
lradius 90.8807
lwrist 4.96755
lhand -22.1985 -1.58232
lfingers 7.12502
lthumb 4.21709 28.3557
rfemur -89.5295 -51.6259 5.75011
rtibia 130.132
rfoot -29.6706 0.512018
rtoes -38.4356
lfemur -87.9631 39.2266 6.60808
ltibia 136.35
lfoot -14.4815 -61.3407
ltoes 17.1632
